<mxfile host="app.diagrams.net" modified="2023-01-30T19:31:55.199Z" agent="5.0 (X11)" etag="g0p1lVAujUgLjqt1KbT5" version="20.8.13" type="github">
  <diagram name="Page-1" id="13e1069c-82ec-6db2-03f1-153e76fe0fe0">
    <mxGraphModel dx="1688" dy="915" grid="1" gridSize="10" guides="1" tooltips="1" connect="1" arrows="1" fold="1" page="1" pageScale="1" pageWidth="1100" pageHeight="850" background="none" math="0" shadow="0">
      <root>
        <mxCell id="0" />
        <mxCell id="1" parent="0" />
        <mxCell id="7baba1c4bc27f4b0-2" value="Point Cloud Callbask" style="shape=umlLifeline;perimeter=lifelinePerimeter;whiteSpace=wrap;html=1;container=1;collapsible=0;recursiveResize=0;outlineConnect=0;rounded=1;shadow=0;comic=0;labelBackgroundColor=none;strokeWidth=1;fontFamily=Verdana;fontSize=12;align=center;" parent="1" vertex="1">
          <mxGeometry x="240" y="80" width="100" height="580" as="geometry" />
        </mxCell>
        <mxCell id="7baba1c4bc27f4b0-10" value="" style="html=1;points=[];perimeter=orthogonalPerimeter;rounded=0;shadow=0;comic=0;labelBackgroundColor=none;strokeWidth=1;fontFamily=Verdana;fontSize=12;align=center;" parent="7baba1c4bc27f4b0-2" vertex="1">
          <mxGeometry x="45" y="100" width="10" height="40" as="geometry" />
        </mxCell>
        <mxCell id="16wnOX8iOEWURtb0KalO-4" value="Darknet Msg" style="html=1;verticalAlign=bottom;endArrow=block;labelBackgroundColor=none;fontFamily=Verdana;fontSize=12;edgeStyle=elbowEdgeStyle;elbow=vertical;fillColor=#ffe6cc;strokeColor=#d79b00;" edge="1" parent="7baba1c4bc27f4b0-2">
          <mxGeometry x="0.4247" relative="1" as="geometry">
            <mxPoint x="-85" y="160" as="sourcePoint" />
            <mxPoint x="209.5" y="160.5" as="targetPoint" />
            <mxPoint x="1" as="offset" />
          </mxGeometry>
        </mxCell>
        <mxCell id="16wnOX8iOEWURtb0KalO-7" value="" style="html=1;points=[];perimeter=orthogonalPerimeter;rounded=0;shadow=0;comic=0;labelBackgroundColor=none;strokeWidth=1;fontFamily=Verdana;fontSize=12;align=center;" vertex="1" parent="7baba1c4bc27f4b0-2">
          <mxGeometry x="45" y="220" width="10" height="40" as="geometry" />
        </mxCell>
        <mxCell id="7baba1c4bc27f4b0-3" value="Darknet ROS Callback" style="shape=umlLifeline;perimeter=lifelinePerimeter;whiteSpace=wrap;html=1;container=1;collapsible=0;recursiveResize=0;outlineConnect=0;rounded=1;shadow=0;comic=0;labelBackgroundColor=none;strokeWidth=1;fontFamily=Verdana;fontSize=12;align=center;" parent="1" vertex="1">
          <mxGeometry x="400" y="80" width="100" height="430" as="geometry" />
        </mxCell>
        <mxCell id="7baba1c4bc27f4b0-13" value="" style="html=1;points=[];perimeter=orthogonalPerimeter;rounded=0;shadow=0;comic=0;labelBackgroundColor=none;strokeWidth=1;fontFamily=Verdana;fontSize=12;align=center;" parent="7baba1c4bc27f4b0-3" vertex="1">
          <mxGeometry x="45" y="130" width="10" height="40" as="geometry" />
        </mxCell>
        <mxCell id="16wnOX8iOEWURtb0KalO-6" value="" style="curved=1;endArrow=classic;html=1;rounded=0;" edge="1" parent="7baba1c4bc27f4b0-3" target="7baba1c4bc27f4b0-13">
          <mxGeometry width="50" height="50" relative="1" as="geometry">
            <mxPoint x="60" y="160" as="sourcePoint" />
            <mxPoint x="140" y="110" as="targetPoint" />
            <Array as="points">
              <mxPoint x="80" y="160" />
              <mxPoint x="80" y="130" />
            </Array>
          </mxGeometry>
        </mxCell>
        <mxCell id="7baba1c4bc27f4b0-8" value="Computation Graph" style="shape=umlLifeline;perimeter=lifelinePerimeter;whiteSpace=wrap;html=1;container=1;collapsible=0;recursiveResize=0;outlineConnect=0;rounded=1;shadow=0;comic=0;labelBackgroundColor=none;strokeWidth=1;fontFamily=Verdana;fontSize=12;align=center;" parent="1" vertex="1">
          <mxGeometry x="100" y="80" width="100" height="580" as="geometry" />
        </mxCell>
        <mxCell id="7baba1c4bc27f4b0-9" value="" style="html=1;points=[];perimeter=orthogonalPerimeter;rounded=0;shadow=0;comic=0;labelBackgroundColor=none;strokeWidth=1;fontFamily=Verdana;fontSize=12;align=center;" parent="7baba1c4bc27f4b0-8" vertex="1">
          <mxGeometry x="45" y="100" width="10" height="220" as="geometry" />
        </mxCell>
        <mxCell id="16wnOX8iOEWURtb0KalO-2" value="Darknet Msg" style="html=1;verticalAlign=bottom;endArrow=block;labelBackgroundColor=none;fontFamily=Verdana;fontSize=12;edgeStyle=elbowEdgeStyle;elbow=vertical;fillColor=#ffe6cc;strokeColor=#d79b00;" edge="1" parent="7baba1c4bc27f4b0-8" target="7baba1c4bc27f4b0-3">
          <mxGeometry x="0.4247" relative="1" as="geometry">
            <mxPoint x="55" y="129.5" as="sourcePoint" />
            <mxPoint x="308" y="129.5" as="targetPoint" />
            <mxPoint x="1" as="offset" />
          </mxGeometry>
        </mxCell>
        <mxCell id="16wnOX8iOEWURtb0KalO-3" value="Camera Msg" style="html=1;verticalAlign=bottom;endArrow=block;entryX=0;entryY=0;labelBackgroundColor=none;fontFamily=Verdana;fontSize=12;edgeStyle=elbowEdgeStyle;elbow=vertical;fillColor=#dae8fc;strokeColor=#6c8ebf;" edge="1" parent="7baba1c4bc27f4b0-8">
          <mxGeometry relative="1" as="geometry">
            <mxPoint x="55" y="220" as="sourcePoint" />
            <mxPoint x="190.5" y="220" as="targetPoint" />
          </mxGeometry>
        </mxCell>
        <mxCell id="7baba1c4bc27f4b0-16" value="" style="html=1;points=[];perimeter=orthogonalPerimeter;rounded=0;shadow=0;comic=0;labelBackgroundColor=none;strokeWidth=1;fontFamily=Verdana;fontSize=12;align=center;" parent="1" vertex="1">
          <mxGeometry x="585" y="220" width="10" height="180" as="geometry" />
        </mxCell>
        <mxCell id="7baba1c4bc27f4b0-20" value="dispatch" style="html=1;verticalAlign=bottom;endArrow=block;entryX=0;entryY=0;labelBackgroundColor=none;fontFamily=Verdana;fontSize=12;edgeStyle=elbowEdgeStyle;elbow=vertical;" parent="1" source="7baba1c4bc27f4b0-16" edge="1">
          <mxGeometry relative="1" as="geometry">
            <mxPoint x="650" y="230" as="sourcePoint" />
            <mxPoint x="725" y="230" as="targetPoint" />
          </mxGeometry>
        </mxCell>
        <mxCell id="7baba1c4bc27f4b0-21" value="return" style="html=1;verticalAlign=bottom;endArrow=open;dashed=1;endSize=8;labelBackgroundColor=none;fontFamily=Verdana;fontSize=12;edgeStyle=elbowEdgeStyle;elbow=vertical;" parent="1" target="7baba1c4bc27f4b0-16" edge="1">
          <mxGeometry relative="1" as="geometry">
            <mxPoint x="650" y="306" as="targetPoint" />
            <Array as="points">
              <mxPoint x="670" y="260" />
              <mxPoint x="700" y="260" />
            </Array>
            <mxPoint x="725" y="260" as="sourcePoint" />
          </mxGeometry>
        </mxCell>
        <mxCell id="7baba1c4bc27f4b0-22" value="" style="html=1;points=[];perimeter=orthogonalPerimeter;rounded=0;shadow=0;comic=0;labelBackgroundColor=none;strokeWidth=1;fontFamily=Verdana;fontSize=12;align=center;" parent="1" vertex="1">
          <mxGeometry x="990" y="380" width="10" height="140" as="geometry" />
        </mxCell>
        <mxCell id="7baba1c4bc27f4b0-11" value="Camera Msg" style="html=1;verticalAlign=bottom;endArrow=block;entryX=0;entryY=0;labelBackgroundColor=none;fontFamily=Verdana;fontSize=12;edgeStyle=elbowEdgeStyle;elbow=vertical;fillColor=#dae8fc;strokeColor=#6c8ebf;" parent="1" source="7baba1c4bc27f4b0-8" target="7baba1c4bc27f4b0-10" edge="1">
          <mxGeometry relative="1" as="geometry">
            <mxPoint x="180" y="180" as="sourcePoint" />
          </mxGeometry>
        </mxCell>
        <mxCell id="7baba1c4bc27f4b0-34" value="" style="html=1;points=[];perimeter=orthogonalPerimeter;rounded=0;shadow=0;comic=0;labelBackgroundColor=none;strokeWidth=1;fontFamily=Verdana;fontSize=12;align=center;" parent="1" vertex="1">
          <mxGeometry x="590" y="300" width="10" height="70" as="geometry" />
        </mxCell>
        <mxCell id="7baba1c4bc27f4b0-35" value="dispatch" style="html=1;verticalAlign=bottom;endArrow=block;labelBackgroundColor=none;fontFamily=Verdana;fontSize=12;elbow=vertical;edgeStyle=orthogonalEdgeStyle;curved=1;entryX=1;entryY=0.286;entryPerimeter=0;exitX=1.038;exitY=0.345;exitPerimeter=0;" parent="1" source="7baba1c4bc27f4b0-16" target="7baba1c4bc27f4b0-34" edge="1">
          <mxGeometry relative="1" as="geometry">
            <mxPoint x="465" y="230" as="sourcePoint" />
            <mxPoint x="595" y="230" as="targetPoint" />
            <Array as="points">
              <mxPoint x="650" y="282" />
              <mxPoint x="650" y="320" />
            </Array>
          </mxGeometry>
        </mxCell>
        <mxCell id="7baba1c4bc27f4b0-36" value="dispatch" style="html=1;verticalAlign=bottom;endArrow=block;labelBackgroundColor=none;fontFamily=Verdana;fontSize=12;elbow=vertical;edgeStyle=orthogonalEdgeStyle;curved=1;exitX=1.066;exitY=0.713;exitPerimeter=0;" parent="1" source="7baba1c4bc27f4b0-34" edge="1">
          <mxGeometry relative="1" as="geometry">
            <mxPoint x="610.3333333333333" y="350" as="sourcePoint" />
            <mxPoint x="595" y="389" as="targetPoint" />
            <Array as="points">
              <mxPoint x="650" y="350" />
              <mxPoint x="650" y="389" />
            </Array>
          </mxGeometry>
        </mxCell>
        <mxCell id="7baba1c4bc27f4b0-37" value="" style="html=1;points=[];perimeter=orthogonalPerimeter;rounded=0;shadow=0;comic=0;labelBackgroundColor=none;strokeWidth=1;fontFamily=Verdana;fontSize=12;align=center;" parent="1" vertex="1">
          <mxGeometry x="590" y="520" width="10" height="40" as="geometry" />
        </mxCell>
        <mxCell id="7baba1c4bc27f4b0-39" value="dispatch" style="html=1;verticalAlign=bottom;endArrow=block;labelBackgroundColor=none;fontFamily=Verdana;fontSize=12;elbow=vertical;edgeStyle=orthogonalEdgeStyle;curved=1;" parent="1" edge="1">
          <mxGeometry relative="1" as="geometry">
            <mxPoint x="550" y="490" as="sourcePoint" />
            <mxPoint x="690" y="530" as="targetPoint" />
            <Array as="points">
              <mxPoint x="650" y="501" />
              <mxPoint x="650" y="539" />
            </Array>
          </mxGeometry>
        </mxCell>
        <mxCell id="7baba1c4bc27f4b0-40" value="Note" style="shape=note;whiteSpace=wrap;html=1;size=14;verticalAlign=top;align=left;spacingTop=-6;rounded=0;shadow=0;comic=0;labelBackgroundColor=none;strokeWidth=1;fontFamily=Verdana;fontSize=12" parent="1" vertex="1">
          <mxGeometry x="100" y="30" width="100" height="35" as="geometry" />
        </mxCell>
        <mxCell id="7baba1c4bc27f4b0-41" value="Note" style="shape=note;whiteSpace=wrap;html=1;size=14;verticalAlign=top;align=left;spacingTop=-6;rounded=0;shadow=0;comic=0;labelBackgroundColor=none;strokeWidth=1;fontFamily=Verdana;fontSize=12" parent="1" vertex="1">
          <mxGeometry x="240" y="30" width="100" height="35" as="geometry" />
        </mxCell>
        <mxCell id="7baba1c4bc27f4b0-42" value="Note" style="shape=note;whiteSpace=wrap;html=1;size=14;verticalAlign=top;align=left;spacingTop=-6;rounded=0;shadow=0;comic=0;labelBackgroundColor=none;strokeWidth=1;fontFamily=Verdana;fontSize=12" parent="1" vertex="1">
          <mxGeometry x="400" y="30" width="100" height="35" as="geometry" />
        </mxCell>
      </root>
    </mxGraphModel>
  </diagram>
</mxfile>
